<?xml version="1.0" standalone="no"?>
<!DOCTYPE svg PUBLIC "-//W3C//DTD SVG 20010904//EN"
 "http://www.w3.org/TR/2001/REC-SVG-20010904/DTD/svg10.dtd">
<svg version="1.0" xmlns="http://www.w3.org/2000/svg"
 width="273.000000pt" height="204.000000pt" viewBox="0 0 273.000000 204.000000"
 preserveAspectRatio="xMidYMid meet">

<g transform="translate(0.000000,204.000000) scale(0.100000,-0.100000)"
fill="#000000" stroke="none">
<path d="M1486 1799 c-25 -20 -26 -24 -26 -126 0 -96 2 -109 24 -137 36 -48
56 -92 56 -124 0 -37 -21 -56 -52 -47 -20 7 -19 4 9 -24 73 -73 60 -172 -18
-131 -16 9 -19 7 -19 -12 0 -13 10 -43 23 -68 16 -33 28 -45 45 -46 12 0 22 5
22 12 0 7 7 20 16 28 13 14 47 16 219 16 192 0 204 1 210 19 3 11 12 25 21 31
12 10 18 9 34 -5 20 -18 20 -17 20 288 l0 306 -26 20 c-27 22 -114 30 -114 12
0 -5 -7 -17 -16 -25 -12 -13 -41 -16 -145 -16 -131 0 -169 8 -169 35 0 24 -81
20 -114 -6z m179 -259 c-8 -13 -3 -13 30 0 14 5 24 6 21 1 -7 -10 54 -9 71 2
6 4 14 4 16 0 3 -5 51 -8 106 -7 l101 1 0 -43 c0 -33 -5 -46 -19 -54 -12 -6
-97 -10 -206 -10 -109 0 -194 4 -206 10 -14 8 -19 21 -19 50 0 34 4 41 25 46
14 3 31 4 38 1 8 -3 20 -1 28 4 18 11 22 11 14 -1z m340 -260 l0 -75 -209 -3
c-145 -2 -213 1 -222 9 -15 12 -20 129 -7 143 4 3 104 5 222 4 l216 -3 0 -75z"/>
</g>
</svg>
